<mxfile host="app.diagrams.net" modified="2023-12-14T22:53:29.684Z" agent="Mozilla/5.0 (Windows NT 10.0; Win64; x64) AppleWebKit/537.36 (KHTML, like Gecko) Chrome/120.0.0.0 Safari/537.36" etag="OQcij3LvW8EC2mqIs8jI" version="22.1.9" type="device">
  <diagram id="C5RBs43oDa-KdzZeNtuy" name="Page-1">
    <mxGraphModel dx="1976" dy="1909" grid="1" gridSize="10" guides="1" tooltips="1" connect="1" arrows="1" fold="1" page="1" pageScale="1" pageWidth="3300" pageHeight="4681" math="0" shadow="0">
      <root>
        <mxCell id="WIyWlLk6GJQsqaUBKTNV-0" />
        <mxCell id="WIyWlLk6GJQsqaUBKTNV-1" parent="WIyWlLk6GJQsqaUBKTNV-0" />
        <mxCell id="hqAJhRNGT6BCf1iGtL1m-3" value="Menú" style="shape=process;whiteSpace=wrap;html=1;backgroundOutline=1;fontSize=16;" parent="WIyWlLk6GJQsqaUBKTNV-1" vertex="1">
          <mxGeometry x="80" y="40" width="120" height="80" as="geometry" />
        </mxCell>
        <mxCell id="hqAJhRNGT6BCf1iGtL1m-4" value="Fin del Programa" style="rounded=1;whiteSpace=wrap;html=1;fontSize=16;" parent="WIyWlLk6GJQsqaUBKTNV-1" vertex="1">
          <mxGeometry x="80" y="280" width="120" height="80" as="geometry" />
        </mxCell>
        <mxCell id="hqAJhRNGT6BCf1iGtL1m-5" value="" style="endArrow=classic;html=1;rounded=0;fontSize=12;startSize=8;endSize=8;edgeStyle=none;curved=1;exitX=0.5;exitY=1;exitDx=0;exitDy=0;entryX=0.5;entryY=0;entryDx=0;entryDy=0;" parent="WIyWlLk6GJQsqaUBKTNV-1" target="hqAJhRNGT6BCf1iGtL1m-4" edge="1">
          <mxGeometry width="50" height="50" relative="1" as="geometry">
            <mxPoint x="140" y="240" as="sourcePoint" />
            <mxPoint x="360" y="210" as="targetPoint" />
          </mxGeometry>
        </mxCell>
        <mxCell id="hqAJhRNGT6BCf1iGtL1m-6" value="Si" style="text;html=1;align=center;verticalAlign=middle;resizable=0;points=[];autosize=1;strokeColor=none;fillColor=none;fontSize=16;" parent="WIyWlLk6GJQsqaUBKTNV-1" vertex="1">
          <mxGeometry x="140" y="240" width="40" height="30" as="geometry" />
        </mxCell>
        <mxCell id="hqAJhRNGT6BCf1iGtL1m-7" value="" style="endArrow=classic;html=1;rounded=0;fontSize=12;startSize=8;endSize=8;edgeStyle=none;curved=1;exitX=0.5;exitY=1;exitDx=0;exitDy=0;entryX=0.5;entryY=0;entryDx=0;entryDy=0;" parent="WIyWlLk6GJQsqaUBKTNV-1" source="hqAJhRNGT6BCf1iGtL1m-3" edge="1">
          <mxGeometry width="50" height="50" relative="1" as="geometry">
            <mxPoint x="310" y="260" as="sourcePoint" />
            <mxPoint x="140" y="160" as="targetPoint" />
          </mxGeometry>
        </mxCell>
        <mxCell id="hqAJhRNGT6BCf1iGtL1m-8" value="" style="endArrow=classic;html=1;rounded=0;fontSize=12;startSize=8;endSize=8;edgeStyle=none;curved=1;exitX=1;exitY=0.5;exitDx=0;exitDy=0;" parent="WIyWlLk6GJQsqaUBKTNV-1" edge="1">
          <mxGeometry width="50" height="50" relative="1" as="geometry">
            <mxPoint x="200" y="200" as="sourcePoint" />
            <mxPoint x="240" y="200" as="targetPoint" />
          </mxGeometry>
        </mxCell>
        <mxCell id="hqAJhRNGT6BCf1iGtL1m-10" value="Presiona 1?" style="rhombus;whiteSpace=wrap;html=1;fontSize=16;" parent="WIyWlLk6GJQsqaUBKTNV-1" vertex="1">
          <mxGeometry x="240" y="160" width="120" height="80" as="geometry" />
        </mxCell>
        <mxCell id="hqAJhRNGT6BCf1iGtL1m-11" value="Presiona 0?" style="rhombus;whiteSpace=wrap;html=1;fontSize=16;" parent="WIyWlLk6GJQsqaUBKTNV-1" vertex="1">
          <mxGeometry x="80" y="160" width="120" height="80" as="geometry" />
        </mxCell>
        <mxCell id="hqAJhRNGT6BCf1iGtL1m-12" value="No" style="text;html=1;align=center;verticalAlign=middle;resizable=0;points=[];autosize=1;strokeColor=none;fillColor=none;fontSize=16;" parent="WIyWlLk6GJQsqaUBKTNV-1" vertex="1">
          <mxGeometry x="190" y="168" width="40" height="30" as="geometry" />
        </mxCell>
        <mxCell id="hqAJhRNGT6BCf1iGtL1m-14" value="" style="endArrow=classic;html=1;rounded=0;fontSize=12;startSize=8;endSize=8;edgeStyle=none;curved=1;exitX=0.5;exitY=1;exitDx=0;exitDy=0;" parent="WIyWlLk6GJQsqaUBKTNV-1" source="hqAJhRNGT6BCf1iGtL1m-10" edge="1">
          <mxGeometry width="50" height="50" relative="1" as="geometry">
            <mxPoint x="410" y="380" as="sourcePoint" />
            <mxPoint x="300" y="280" as="targetPoint" />
          </mxGeometry>
        </mxCell>
        <mxCell id="hqAJhRNGT6BCf1iGtL1m-15" value="Tiene algun libro a devolver?" style="rhombus;whiteSpace=wrap;html=1;fontSize=11;verticalAlign=middle;spacingTop=10;" parent="WIyWlLk6GJQsqaUBKTNV-1" vertex="1">
          <mxGeometry x="240" y="280" width="120" height="80" as="geometry" />
        </mxCell>
        <mxCell id="hqAJhRNGT6BCf1iGtL1m-16" value="" style="endArrow=classic;html=1;rounded=0;fontSize=12;startSize=8;endSize=8;edgeStyle=none;curved=1;exitX=0.5;exitY=1;exitDx=0;exitDy=0;" parent="WIyWlLk6GJQsqaUBKTNV-1" source="hqAJhRNGT6BCf1iGtL1m-15" edge="1">
          <mxGeometry width="50" height="50" relative="1" as="geometry">
            <mxPoint x="410" y="380" as="sourcePoint" />
            <mxPoint x="300" y="400" as="targetPoint" />
          </mxGeometry>
        </mxCell>
        <mxCell id="hqAJhRNGT6BCf1iGtL1m-17" value="Si" style="text;html=1;align=center;verticalAlign=middle;resizable=0;points=[];autosize=1;strokeColor=none;fillColor=none;fontSize=16;" parent="WIyWlLk6GJQsqaUBKTNV-1" vertex="1">
          <mxGeometry x="300" y="240" width="40" height="30" as="geometry" />
        </mxCell>
        <mxCell id="hqAJhRNGT6BCf1iGtL1m-18" value="No" style="text;html=1;align=center;verticalAlign=middle;resizable=0;points=[];autosize=1;strokeColor=none;fillColor=none;fontSize=16;" parent="WIyWlLk6GJQsqaUBKTNV-1" vertex="1">
          <mxGeometry x="300" y="360" width="40" height="30" as="geometry" />
        </mxCell>
        <mxCell id="hqAJhRNGT6BCf1iGtL1m-21" value="" style="endArrow=none;html=1;rounded=0;fontSize=12;startSize=8;endSize=8;edgeStyle=none;curved=1;exitX=0;exitY=0.5;exitDx=0;exitDy=0;exitPerimeter=0;" parent="WIyWlLk6GJQsqaUBKTNV-1" source="hqAJhRNGT6BCf1iGtL1m-27" edge="1">
          <mxGeometry width="50" height="50" relative="1" as="geometry">
            <mxPoint x="240" y="440" as="sourcePoint" />
            <mxPoint x="40" y="440" as="targetPoint" />
          </mxGeometry>
        </mxCell>
        <mxCell id="hqAJhRNGT6BCf1iGtL1m-22" value="" style="endArrow=none;html=1;rounded=0;fontSize=12;startSize=8;endSize=8;edgeStyle=none;curved=1;" parent="WIyWlLk6GJQsqaUBKTNV-1" edge="1">
          <mxGeometry width="50" height="50" relative="1" as="geometry">
            <mxPoint x="40" y="440" as="sourcePoint" />
            <mxPoint x="40" y="80" as="targetPoint" />
          </mxGeometry>
        </mxCell>
        <mxCell id="hqAJhRNGT6BCf1iGtL1m-23" value="" style="endArrow=classic;html=1;rounded=0;fontSize=12;startSize=8;endSize=8;edgeStyle=none;curved=1;entryX=0;entryY=0.5;entryDx=0;entryDy=0;" parent="WIyWlLk6GJQsqaUBKTNV-1" target="hqAJhRNGT6BCf1iGtL1m-3" edge="1">
          <mxGeometry width="50" height="50" relative="1" as="geometry">
            <mxPoint x="40" y="80" as="sourcePoint" />
            <mxPoint x="460" y="330" as="targetPoint" />
          </mxGeometry>
        </mxCell>
        <mxCell id="hqAJhRNGT6BCf1iGtL1m-24" value="" style="endArrow=classic;html=1;rounded=0;fontSize=12;startSize=8;endSize=8;edgeStyle=none;curved=1;exitX=1;exitY=0.5;exitDx=0;exitDy=0;" parent="WIyWlLk6GJQsqaUBKTNV-1" source="hqAJhRNGT6BCf1iGtL1m-15" edge="1">
          <mxGeometry width="50" height="50" relative="1" as="geometry">
            <mxPoint x="410" y="380" as="sourcePoint" />
            <mxPoint x="400" y="320" as="targetPoint" />
          </mxGeometry>
        </mxCell>
        <mxCell id="hqAJhRNGT6BCf1iGtL1m-25" value="Si" style="text;html=1;align=center;verticalAlign=middle;resizable=0;points=[];autosize=1;strokeColor=none;fillColor=none;fontSize=16;" parent="WIyWlLk6GJQsqaUBKTNV-1" vertex="1">
          <mxGeometry x="360" y="290" width="40" height="30" as="geometry" />
        </mxCell>
        <mxCell id="hqAJhRNGT6BCf1iGtL1m-27" value="Nada que devolver" style="strokeWidth=2;html=1;shape=mxgraph.flowchart.display;whiteSpace=wrap;fontSize=16;" parent="WIyWlLk6GJQsqaUBKTNV-1" vertex="1">
          <mxGeometry x="240" y="400" width="120" height="80" as="geometry" />
        </mxCell>
        <mxCell id="hqAJhRNGT6BCf1iGtL1m-28" value="Código del libro a devolver" style="html=1;strokeWidth=2;shape=manualInput;whiteSpace=wrap;rounded=1;size=26;arcSize=11;fontSize=16;spacingTop=20;" parent="WIyWlLk6GJQsqaUBKTNV-1" vertex="1">
          <mxGeometry x="400" y="280" width="120" height="80" as="geometry" />
        </mxCell>
        <mxCell id="hqAJhRNGT6BCf1iGtL1m-29" value="Título del libro a devolver" style="html=1;strokeWidth=2;shape=manualInput;whiteSpace=wrap;rounded=1;size=26;arcSize=11;fontSize=16;spacingTop=20;" parent="WIyWlLk6GJQsqaUBKTNV-1" vertex="1">
          <mxGeometry x="400" y="400" width="120" height="80" as="geometry" />
        </mxCell>
        <mxCell id="hqAJhRNGT6BCf1iGtL1m-32" value="" style="endArrow=classic;html=1;rounded=0;fontSize=12;startSize=8;endSize=8;edgeStyle=none;curved=1;exitX=0.5;exitY=1;exitDx=0;exitDy=0;entryX=0.5;entryY=0;entryDx=0;entryDy=0;" parent="WIyWlLk6GJQsqaUBKTNV-1" source="hqAJhRNGT6BCf1iGtL1m-28" target="hqAJhRNGT6BCf1iGtL1m-29" edge="1">
          <mxGeometry width="50" height="50" relative="1" as="geometry">
            <mxPoint x="380" y="470" as="sourcePoint" />
            <mxPoint x="430" y="540" as="targetPoint" />
          </mxGeometry>
        </mxCell>
        <mxCell id="hqAJhRNGT6BCf1iGtL1m-33" value="Año del libro a devolver" style="html=1;strokeWidth=2;shape=manualInput;whiteSpace=wrap;rounded=1;size=26;arcSize=11;fontSize=16;spacingTop=20;" parent="WIyWlLk6GJQsqaUBKTNV-1" vertex="1">
          <mxGeometry x="400" y="520" width="120" height="80" as="geometry" />
        </mxCell>
        <mxCell id="hqAJhRNGT6BCf1iGtL1m-34" value="" style="endArrow=classic;html=1;rounded=0;fontSize=12;startSize=8;endSize=8;edgeStyle=none;curved=1;entryX=0.5;entryY=0;entryDx=0;entryDy=0;" parent="WIyWlLk6GJQsqaUBKTNV-1" target="hqAJhRNGT6BCf1iGtL1m-33" edge="1">
          <mxGeometry width="50" height="50" relative="1" as="geometry">
            <mxPoint x="460" y="480" as="sourcePoint" />
            <mxPoint x="510" y="360" as="targetPoint" />
          </mxGeometry>
        </mxCell>
        <mxCell id="hqAJhRNGT6BCf1iGtL1m-36" value="" style="endArrow=none;html=1;rounded=0;fontSize=12;startSize=8;endSize=8;edgeStyle=none;curved=1;exitX=0;exitY=0.5;exitDx=0;exitDy=0;" parent="WIyWlLk6GJQsqaUBKTNV-1" edge="1">
          <mxGeometry width="50" height="50" relative="1" as="geometry">
            <mxPoint x="400" y="799.41" as="sourcePoint" />
            <mxPoint x="40" y="799" as="targetPoint" />
          </mxGeometry>
        </mxCell>
        <mxCell id="hqAJhRNGT6BCf1iGtL1m-37" value="" style="endArrow=none;html=1;rounded=0;fontSize=12;startSize=8;endSize=8;edgeStyle=none;curved=1;" parent="WIyWlLk6GJQsqaUBKTNV-1" edge="1">
          <mxGeometry width="50" height="50" relative="1" as="geometry">
            <mxPoint x="40" y="800" as="sourcePoint" />
            <mxPoint x="40" y="440" as="targetPoint" />
          </mxGeometry>
        </mxCell>
        <mxCell id="hqAJhRNGT6BCf1iGtL1m-38" value="Comprobación Devolución&lt;br&gt;libros -1" style="rounded=0;whiteSpace=wrap;html=1;fontSize=16;" parent="WIyWlLk6GJQsqaUBKTNV-1" vertex="1">
          <mxGeometry x="400" y="640" width="120" height="80" as="geometry" />
        </mxCell>
        <mxCell id="hqAJhRNGT6BCf1iGtL1m-39" value="Libro Disponible +1" style="rounded=0;whiteSpace=wrap;html=1;fontSize=16;" parent="WIyWlLk6GJQsqaUBKTNV-1" vertex="1">
          <mxGeometry x="400" y="760" width="120" height="80" as="geometry" />
        </mxCell>
        <mxCell id="hqAJhRNGT6BCf1iGtL1m-40" value="" style="endArrow=classic;html=1;rounded=0;fontSize=12;startSize=8;endSize=8;edgeStyle=none;curved=1;entryX=0.5;entryY=0;entryDx=0;entryDy=0;" parent="WIyWlLk6GJQsqaUBKTNV-1" edge="1">
          <mxGeometry width="50" height="50" relative="1" as="geometry">
            <mxPoint x="459.41" y="600" as="sourcePoint" />
            <mxPoint x="459.41" y="640" as="targetPoint" />
          </mxGeometry>
        </mxCell>
        <mxCell id="hqAJhRNGT6BCf1iGtL1m-41" value="" style="endArrow=classic;html=1;rounded=0;fontSize=12;startSize=8;endSize=8;edgeStyle=none;curved=1;entryX=0.5;entryY=0;entryDx=0;entryDy=0;exitX=0.5;exitY=1;exitDx=0;exitDy=0;" parent="WIyWlLk6GJQsqaUBKTNV-1" source="hqAJhRNGT6BCf1iGtL1m-38" target="hqAJhRNGT6BCf1iGtL1m-39" edge="1">
          <mxGeometry width="50" height="50" relative="1" as="geometry">
            <mxPoint x="454" y="720" as="sourcePoint" />
            <mxPoint x="424" y="770" as="targetPoint" />
          </mxGeometry>
        </mxCell>
        <mxCell id="hqAJhRNGT6BCf1iGtL1m-42" value="" style="endArrow=classic;html=1;rounded=0;fontSize=12;startSize=8;endSize=8;edgeStyle=none;curved=1;exitX=1;exitY=0.5;exitDx=0;exitDy=0;entryX=0;entryY=0.5;entryDx=0;entryDy=0;" parent="WIyWlLk6GJQsqaUBKTNV-1" source="hqAJhRNGT6BCf1iGtL1m-10" target="hqAJhRNGT6BCf1iGtL1m-43" edge="1">
          <mxGeometry width="50" height="50" relative="1" as="geometry">
            <mxPoint x="520" y="430" as="sourcePoint" />
            <mxPoint x="400" y="200" as="targetPoint" />
          </mxGeometry>
        </mxCell>
        <mxCell id="hqAJhRNGT6BCf1iGtL1m-43" value="Presiona 2?" style="rhombus;whiteSpace=wrap;html=1;fontSize=16;" parent="WIyWlLk6GJQsqaUBKTNV-1" vertex="1">
          <mxGeometry x="560" y="160" width="120" height="80" as="geometry" />
        </mxCell>
        <mxCell id="hqAJhRNGT6BCf1iGtL1m-44" value="No" style="text;html=1;align=center;verticalAlign=middle;resizable=0;points=[];autosize=1;strokeColor=none;fillColor=none;fontSize=16;" parent="WIyWlLk6GJQsqaUBKTNV-1" vertex="1">
          <mxGeometry x="360" y="168" width="40" height="30" as="geometry" />
        </mxCell>
        <mxCell id="hqAJhRNGT6BCf1iGtL1m-45" value="" style="endArrow=classic;html=1;rounded=0;fontSize=12;startSize=8;endSize=8;edgeStyle=none;curved=1;exitX=0.5;exitY=1;exitDx=0;exitDy=0;" parent="WIyWlLk6GJQsqaUBKTNV-1" source="hqAJhRNGT6BCf1iGtL1m-43" edge="1">
          <mxGeometry width="50" height="50" relative="1" as="geometry">
            <mxPoint x="530" y="500" as="sourcePoint" />
            <mxPoint x="620" y="280" as="targetPoint" />
          </mxGeometry>
        </mxCell>
        <mxCell id="hqAJhRNGT6BCf1iGtL1m-46" value="Si" style="text;html=1;align=center;verticalAlign=middle;resizable=0;points=[];autosize=1;strokeColor=none;fillColor=none;fontSize=16;" parent="WIyWlLk6GJQsqaUBKTNV-1" vertex="1">
          <mxGeometry x="620" y="240" width="40" height="30" as="geometry" />
        </mxCell>
        <mxCell id="hqAJhRNGT6BCf1iGtL1m-47" value="Hay libros disponibles?" style="rhombus;whiteSpace=wrap;html=1;fontSize=14;" parent="WIyWlLk6GJQsqaUBKTNV-1" vertex="1">
          <mxGeometry x="560" y="280" width="120" height="80" as="geometry" />
        </mxCell>
        <mxCell id="hqAJhRNGT6BCf1iGtL1m-48" value="No hay libros que poder retirar" style="strokeWidth=2;html=1;shape=mxgraph.flowchart.display;whiteSpace=wrap;fontSize=12;spacingTop=9;spacingLeft=4;" parent="WIyWlLk6GJQsqaUBKTNV-1" vertex="1">
          <mxGeometry x="560" y="400" width="120" height="80" as="geometry" />
        </mxCell>
        <mxCell id="hqAJhRNGT6BCf1iGtL1m-49" value="" style="endArrow=classic;html=1;rounded=0;fontSize=12;startSize=8;endSize=8;edgeStyle=none;curved=1;exitX=0.5;exitY=1;exitDx=0;exitDy=0;" parent="WIyWlLk6GJQsqaUBKTNV-1" source="hqAJhRNGT6BCf1iGtL1m-47" target="hqAJhRNGT6BCf1iGtL1m-48" edge="1">
          <mxGeometry width="50" height="50" relative="1" as="geometry">
            <mxPoint x="530" y="500" as="sourcePoint" />
            <mxPoint x="580" y="450" as="targetPoint" />
          </mxGeometry>
        </mxCell>
        <mxCell id="hqAJhRNGT6BCf1iGtL1m-53" value="" style="endArrow=none;html=1;rounded=0;fontSize=12;startSize=8;endSize=8;edgeStyle=none;curved=1;" parent="WIyWlLk6GJQsqaUBKTNV-1" edge="1">
          <mxGeometry width="50" height="50" relative="1" as="geometry">
            <mxPoint x="620" y="880" as="sourcePoint" />
            <mxPoint x="620" y="480" as="targetPoint" />
          </mxGeometry>
        </mxCell>
        <mxCell id="hqAJhRNGT6BCf1iGtL1m-54" value="" style="endArrow=none;html=1;rounded=0;fontSize=12;startSize=8;endSize=8;edgeStyle=none;curved=1;" parent="WIyWlLk6GJQsqaUBKTNV-1" edge="1">
          <mxGeometry width="50" height="50" relative="1" as="geometry">
            <mxPoint x="40" y="880" as="sourcePoint" />
            <mxPoint x="620" y="880" as="targetPoint" />
          </mxGeometry>
        </mxCell>
        <mxCell id="hqAJhRNGT6BCf1iGtL1m-55" value="" style="endArrow=none;html=1;rounded=0;fontSize=12;startSize=8;endSize=8;edgeStyle=none;curved=1;" parent="WIyWlLk6GJQsqaUBKTNV-1" edge="1">
          <mxGeometry width="50" height="50" relative="1" as="geometry">
            <mxPoint x="40" y="880" as="sourcePoint" />
            <mxPoint x="40" y="800" as="targetPoint" />
          </mxGeometry>
        </mxCell>
        <mxCell id="hqAJhRNGT6BCf1iGtL1m-56" value="No" style="text;html=1;align=center;verticalAlign=middle;resizable=0;points=[];autosize=1;strokeColor=none;fillColor=none;fontSize=16;" parent="WIyWlLk6GJQsqaUBKTNV-1" vertex="1">
          <mxGeometry x="620" y="360" width="40" height="30" as="geometry" />
        </mxCell>
        <mxCell id="hqAJhRNGT6BCf1iGtL1m-57" value="" style="endArrow=classic;html=1;rounded=0;fontSize=12;startSize=8;endSize=8;edgeStyle=none;curved=1;exitX=1;exitY=0.5;exitDx=0;exitDy=0;" parent="WIyWlLk6GJQsqaUBKTNV-1" source="hqAJhRNGT6BCf1iGtL1m-47" edge="1">
          <mxGeometry width="50" height="50" relative="1" as="geometry">
            <mxPoint x="650" y="500" as="sourcePoint" />
            <mxPoint x="720" y="320" as="targetPoint" />
          </mxGeometry>
        </mxCell>
        <mxCell id="hqAJhRNGT6BCf1iGtL1m-58" value="Código del libro a retirar" style="html=1;strokeWidth=2;shape=manualInput;whiteSpace=wrap;rounded=1;size=26;arcSize=11;fontSize=16;spacingTop=20;" parent="WIyWlLk6GJQsqaUBKTNV-1" vertex="1">
          <mxGeometry x="720" y="280" width="120" height="80" as="geometry" />
        </mxCell>
        <mxCell id="hqAJhRNGT6BCf1iGtL1m-59" value="Título del libro a retirar" style="html=1;strokeWidth=2;shape=manualInput;whiteSpace=wrap;rounded=1;size=26;arcSize=11;fontSize=16;spacingTop=20;" parent="WIyWlLk6GJQsqaUBKTNV-1" vertex="1">
          <mxGeometry x="720" y="400" width="120" height="80" as="geometry" />
        </mxCell>
        <mxCell id="hqAJhRNGT6BCf1iGtL1m-60" value="" style="endArrow=classic;html=1;rounded=0;fontSize=12;startSize=8;endSize=8;edgeStyle=none;curved=1;exitX=0.5;exitY=1;exitDx=0;exitDy=0;entryX=0.5;entryY=0;entryDx=0;entryDy=0;" parent="WIyWlLk6GJQsqaUBKTNV-1" source="hqAJhRNGT6BCf1iGtL1m-58" target="hqAJhRNGT6BCf1iGtL1m-59" edge="1">
          <mxGeometry width="50" height="50" relative="1" as="geometry">
            <mxPoint x="700" y="470" as="sourcePoint" />
            <mxPoint x="750" y="540" as="targetPoint" />
          </mxGeometry>
        </mxCell>
        <mxCell id="hqAJhRNGT6BCf1iGtL1m-61" value="Año del libro a retirar" style="html=1;strokeWidth=2;shape=manualInput;whiteSpace=wrap;rounded=1;size=26;arcSize=11;fontSize=16;spacingTop=20;" parent="WIyWlLk6GJQsqaUBKTNV-1" vertex="1">
          <mxGeometry x="720" y="520" width="120" height="80" as="geometry" />
        </mxCell>
        <mxCell id="hqAJhRNGT6BCf1iGtL1m-62" value="" style="endArrow=classic;html=1;rounded=0;fontSize=12;startSize=8;endSize=8;edgeStyle=none;curved=1;entryX=0.5;entryY=0;entryDx=0;entryDy=0;" parent="WIyWlLk6GJQsqaUBKTNV-1" target="hqAJhRNGT6BCf1iGtL1m-61" edge="1">
          <mxGeometry width="50" height="50" relative="1" as="geometry">
            <mxPoint x="780" y="480" as="sourcePoint" />
            <mxPoint x="830" y="360" as="targetPoint" />
          </mxGeometry>
        </mxCell>
        <mxCell id="hqAJhRNGT6BCf1iGtL1m-63" value="Comprobación Devolución&lt;br&gt;libros +1" style="rounded=0;whiteSpace=wrap;html=1;fontSize=16;" parent="WIyWlLk6GJQsqaUBKTNV-1" vertex="1">
          <mxGeometry x="720" y="640" width="120" height="80" as="geometry" />
        </mxCell>
        <mxCell id="hqAJhRNGT6BCf1iGtL1m-64" value="Libro Disponible -1" style="rounded=0;whiteSpace=wrap;html=1;fontSize=16;" parent="WIyWlLk6GJQsqaUBKTNV-1" vertex="1">
          <mxGeometry x="720" y="760" width="120" height="80" as="geometry" />
        </mxCell>
        <mxCell id="hqAJhRNGT6BCf1iGtL1m-65" value="" style="endArrow=classic;html=1;rounded=0;fontSize=12;startSize=8;endSize=8;edgeStyle=none;curved=1;entryX=0.5;entryY=0;entryDx=0;entryDy=0;" parent="WIyWlLk6GJQsqaUBKTNV-1" edge="1">
          <mxGeometry width="50" height="50" relative="1" as="geometry">
            <mxPoint x="779.4100000000001" y="600" as="sourcePoint" />
            <mxPoint x="779.4100000000001" y="640" as="targetPoint" />
          </mxGeometry>
        </mxCell>
        <mxCell id="hqAJhRNGT6BCf1iGtL1m-66" value="" style="endArrow=classic;html=1;rounded=0;fontSize=12;startSize=8;endSize=8;edgeStyle=none;curved=1;entryX=0.5;entryY=0;entryDx=0;entryDy=0;exitX=0.5;exitY=1;exitDx=0;exitDy=0;" parent="WIyWlLk6GJQsqaUBKTNV-1" source="hqAJhRNGT6BCf1iGtL1m-63" target="hqAJhRNGT6BCf1iGtL1m-64" edge="1">
          <mxGeometry width="50" height="50" relative="1" as="geometry">
            <mxPoint x="774" y="720" as="sourcePoint" />
            <mxPoint x="744" y="770" as="targetPoint" />
          </mxGeometry>
        </mxCell>
        <mxCell id="hqAJhRNGT6BCf1iGtL1m-67" value="Cuentas con libros para devolver" style="strokeWidth=2;html=1;shape=mxgraph.flowchart.display;whiteSpace=wrap;fontSize=13;spacingTop=4;spacingLeft=9;" parent="WIyWlLk6GJQsqaUBKTNV-1" vertex="1">
          <mxGeometry x="730" y="890" width="100" height="60" as="geometry" />
        </mxCell>
        <mxCell id="hqAJhRNGT6BCf1iGtL1m-68" value="" style="endArrow=classic;html=1;rounded=0;fontSize=12;startSize=8;endSize=8;edgeStyle=none;curved=1;entryX=0.5;entryY=0;entryDx=0;entryDy=0;entryPerimeter=0;exitX=0.5;exitY=1;exitDx=0;exitDy=0;" parent="WIyWlLk6GJQsqaUBKTNV-1" source="hqAJhRNGT6BCf1iGtL1m-64" target="hqAJhRNGT6BCf1iGtL1m-67" edge="1">
          <mxGeometry width="50" height="50" relative="1" as="geometry">
            <mxPoint x="650" y="740" as="sourcePoint" />
            <mxPoint x="700" y="690" as="targetPoint" />
          </mxGeometry>
        </mxCell>
        <mxCell id="hqAJhRNGT6BCf1iGtL1m-69" value="" style="endArrow=none;html=1;rounded=0;fontSize=12;startSize=8;endSize=8;edgeStyle=none;curved=1;entryX=0;entryY=0.5;entryDx=0;entryDy=0;entryPerimeter=0;" parent="WIyWlLk6GJQsqaUBKTNV-1" target="hqAJhRNGT6BCf1iGtL1m-67" edge="1">
          <mxGeometry width="50" height="50" relative="1" as="geometry">
            <mxPoint x="40" y="920" as="sourcePoint" />
            <mxPoint x="480" y="690" as="targetPoint" />
          </mxGeometry>
        </mxCell>
        <mxCell id="hqAJhRNGT6BCf1iGtL1m-70" value="" style="endArrow=none;html=1;rounded=0;fontSize=12;startSize=8;endSize=8;edgeStyle=none;curved=1;" parent="WIyWlLk6GJQsqaUBKTNV-1" edge="1">
          <mxGeometry width="50" height="50" relative="1" as="geometry">
            <mxPoint x="40" y="920" as="sourcePoint" />
            <mxPoint x="40" y="880" as="targetPoint" />
          </mxGeometry>
        </mxCell>
        <mxCell id="hqAJhRNGT6BCf1iGtL1m-71" value="" style="endArrow=classic;html=1;rounded=0;fontSize=12;startSize=8;endSize=8;edgeStyle=none;curved=1;" parent="WIyWlLk6GJQsqaUBKTNV-1" edge="1">
          <mxGeometry width="50" height="50" relative="1" as="geometry">
            <mxPoint x="680" y="200" as="sourcePoint" />
            <mxPoint x="880" y="200" as="targetPoint" />
          </mxGeometry>
        </mxCell>
        <mxCell id="hqAJhRNGT6BCf1iGtL1m-73" value="Presiona 3?" style="rhombus;whiteSpace=wrap;html=1;fontSize=16;" parent="WIyWlLk6GJQsqaUBKTNV-1" vertex="1">
          <mxGeometry x="880" y="160" width="120" height="80" as="geometry" />
        </mxCell>
        <mxCell id="hqAJhRNGT6BCf1iGtL1m-74" value="Si" style="text;html=1;align=center;verticalAlign=middle;resizable=0;points=[];autosize=1;strokeColor=none;fillColor=none;fontSize=16;" parent="WIyWlLk6GJQsqaUBKTNV-1" vertex="1">
          <mxGeometry x="680" y="290" width="40" height="30" as="geometry" />
        </mxCell>
        <mxCell id="hqAJhRNGT6BCf1iGtL1m-76" value="No" style="text;html=1;align=center;verticalAlign=middle;resizable=0;points=[];autosize=1;strokeColor=none;fillColor=none;fontSize=16;" parent="WIyWlLk6GJQsqaUBKTNV-1" vertex="1">
          <mxGeometry x="680" y="168" width="40" height="30" as="geometry" />
        </mxCell>
        <mxCell id="hqAJhRNGT6BCf1iGtL1m-77" value="Tiene alguna revista a devolver?" style="rhombus;whiteSpace=wrap;html=1;fontSize=10;verticalAlign=middle;spacingTop=10;" parent="WIyWlLk6GJQsqaUBKTNV-1" vertex="1">
          <mxGeometry x="880" y="280" width="120" height="80" as="geometry" />
        </mxCell>
        <mxCell id="hqAJhRNGT6BCf1iGtL1m-78" value="" style="endArrow=classic;html=1;rounded=0;fontSize=12;startSize=8;endSize=8;edgeStyle=none;curved=1;exitX=0.5;exitY=1;exitDx=0;exitDy=0;" parent="WIyWlLk6GJQsqaUBKTNV-1" source="hqAJhRNGT6BCf1iGtL1m-77" edge="1">
          <mxGeometry width="50" height="50" relative="1" as="geometry">
            <mxPoint x="1050" y="380" as="sourcePoint" />
            <mxPoint x="940" y="400" as="targetPoint" />
          </mxGeometry>
        </mxCell>
        <mxCell id="hqAJhRNGT6BCf1iGtL1m-79" value="No" style="text;html=1;align=center;verticalAlign=middle;resizable=0;points=[];autosize=1;strokeColor=none;fillColor=none;fontSize=16;" parent="WIyWlLk6GJQsqaUBKTNV-1" vertex="1">
          <mxGeometry x="940" y="360" width="40" height="30" as="geometry" />
        </mxCell>
        <mxCell id="hqAJhRNGT6BCf1iGtL1m-80" value="" style="endArrow=classic;html=1;rounded=0;fontSize=12;startSize=8;endSize=8;edgeStyle=none;curved=1;exitX=1;exitY=0.5;exitDx=0;exitDy=0;" parent="WIyWlLk6GJQsqaUBKTNV-1" source="hqAJhRNGT6BCf1iGtL1m-77" edge="1">
          <mxGeometry width="50" height="50" relative="1" as="geometry">
            <mxPoint x="1050" y="380" as="sourcePoint" />
            <mxPoint x="1040" y="320" as="targetPoint" />
          </mxGeometry>
        </mxCell>
        <mxCell id="hqAJhRNGT6BCf1iGtL1m-81" value="Si" style="text;html=1;align=center;verticalAlign=middle;resizable=0;points=[];autosize=1;strokeColor=none;fillColor=none;fontSize=16;" parent="WIyWlLk6GJQsqaUBKTNV-1" vertex="1">
          <mxGeometry x="1000" y="290" width="40" height="30" as="geometry" />
        </mxCell>
        <mxCell id="hqAJhRNGT6BCf1iGtL1m-82" value="No cuentas con ninguna revista para devolver" style="strokeWidth=2;html=1;shape=mxgraph.flowchart.display;whiteSpace=wrap;fontSize=11;spacingLeft=11;spacingTop=4;" parent="WIyWlLk6GJQsqaUBKTNV-1" vertex="1">
          <mxGeometry x="880" y="400" width="120" height="80" as="geometry" />
        </mxCell>
        <mxCell id="hqAJhRNGT6BCf1iGtL1m-83" value="Código de la revista a devolver" style="html=1;strokeWidth=2;shape=manualInput;whiteSpace=wrap;rounded=1;size=26;arcSize=11;fontSize=16;spacingTop=20;" parent="WIyWlLk6GJQsqaUBKTNV-1" vertex="1">
          <mxGeometry x="1040" y="280" width="120" height="80" as="geometry" />
        </mxCell>
        <mxCell id="hqAJhRNGT6BCf1iGtL1m-84" value="Título de la revista a devolver" style="html=1;strokeWidth=2;shape=manualInput;whiteSpace=wrap;rounded=1;size=26;arcSize=11;fontSize=16;spacingTop=20;" parent="WIyWlLk6GJQsqaUBKTNV-1" vertex="1">
          <mxGeometry x="1040" y="400" width="120" height="80" as="geometry" />
        </mxCell>
        <mxCell id="hqAJhRNGT6BCf1iGtL1m-85" value="" style="endArrow=classic;html=1;rounded=0;fontSize=12;startSize=8;endSize=8;edgeStyle=none;curved=1;exitX=0.5;exitY=1;exitDx=0;exitDy=0;entryX=0.5;entryY=0;entryDx=0;entryDy=0;" parent="WIyWlLk6GJQsqaUBKTNV-1" source="hqAJhRNGT6BCf1iGtL1m-83" target="hqAJhRNGT6BCf1iGtL1m-84" edge="1">
          <mxGeometry width="50" height="50" relative="1" as="geometry">
            <mxPoint x="1020" y="470" as="sourcePoint" />
            <mxPoint x="1070" y="540" as="targetPoint" />
          </mxGeometry>
        </mxCell>
        <mxCell id="hqAJhRNGT6BCf1iGtL1m-86" value="Año de la revista a devolver" style="html=1;strokeWidth=2;shape=manualInput;whiteSpace=wrap;rounded=1;size=26;arcSize=11;fontSize=16;spacingTop=20;" parent="WIyWlLk6GJQsqaUBKTNV-1" vertex="1">
          <mxGeometry x="1040" y="520" width="120" height="80" as="geometry" />
        </mxCell>
        <mxCell id="hqAJhRNGT6BCf1iGtL1m-87" value="" style="endArrow=classic;html=1;rounded=0;fontSize=12;startSize=8;endSize=8;edgeStyle=none;curved=1;entryX=0.5;entryY=0;entryDx=0;entryDy=0;" parent="WIyWlLk6GJQsqaUBKTNV-1" target="hqAJhRNGT6BCf1iGtL1m-86" edge="1">
          <mxGeometry width="50" height="50" relative="1" as="geometry">
            <mxPoint x="1100" y="480" as="sourcePoint" />
            <mxPoint x="1150" y="360" as="targetPoint" />
          </mxGeometry>
        </mxCell>
        <mxCell id="hqAJhRNGT6BCf1iGtL1m-88" value="Comprobación Devolución&lt;br&gt;revista -1" style="rounded=0;whiteSpace=wrap;html=1;fontSize=16;" parent="WIyWlLk6GJQsqaUBKTNV-1" vertex="1">
          <mxGeometry x="1040" y="640" width="120" height="80" as="geometry" />
        </mxCell>
        <mxCell id="hqAJhRNGT6BCf1iGtL1m-89" value="Revista Disponible +1" style="rounded=0;whiteSpace=wrap;html=1;fontSize=16;" parent="WIyWlLk6GJQsqaUBKTNV-1" vertex="1">
          <mxGeometry x="1040" y="760" width="120" height="80" as="geometry" />
        </mxCell>
        <mxCell id="hqAJhRNGT6BCf1iGtL1m-90" value="" style="endArrow=classic;html=1;rounded=0;fontSize=12;startSize=8;endSize=8;edgeStyle=none;curved=1;entryX=0.5;entryY=0;entryDx=0;entryDy=0;" parent="WIyWlLk6GJQsqaUBKTNV-1" edge="1">
          <mxGeometry width="50" height="50" relative="1" as="geometry">
            <mxPoint x="1099.41" y="600" as="sourcePoint" />
            <mxPoint x="1099.41" y="640" as="targetPoint" />
          </mxGeometry>
        </mxCell>
        <mxCell id="hqAJhRNGT6BCf1iGtL1m-91" value="" style="endArrow=classic;html=1;rounded=0;fontSize=12;startSize=8;endSize=8;edgeStyle=none;curved=1;entryX=0.5;entryY=0;entryDx=0;entryDy=0;exitX=0.5;exitY=1;exitDx=0;exitDy=0;" parent="WIyWlLk6GJQsqaUBKTNV-1" source="hqAJhRNGT6BCf1iGtL1m-88" target="hqAJhRNGT6BCf1iGtL1m-89" edge="1">
          <mxGeometry width="50" height="50" relative="1" as="geometry">
            <mxPoint x="1094" y="720" as="sourcePoint" />
            <mxPoint x="1064" y="770" as="targetPoint" />
          </mxGeometry>
        </mxCell>
        <mxCell id="hqAJhRNGT6BCf1iGtL1m-92" value="" style="endArrow=classic;html=1;rounded=0;fontSize=12;startSize=8;endSize=8;edgeStyle=none;curved=1;exitX=0.5;exitY=1;exitDx=0;exitDy=0;entryX=0.5;entryY=0;entryDx=0;entryDy=0;" parent="WIyWlLk6GJQsqaUBKTNV-1" source="hqAJhRNGT6BCf1iGtL1m-73" target="hqAJhRNGT6BCf1iGtL1m-77" edge="1">
          <mxGeometry width="50" height="50" relative="1" as="geometry">
            <mxPoint x="1040" y="510" as="sourcePoint" />
            <mxPoint x="1090" y="460" as="targetPoint" />
          </mxGeometry>
        </mxCell>
        <mxCell id="hqAJhRNGT6BCf1iGtL1m-93" value="" style="endArrow=none;html=1;rounded=0;fontSize=12;startSize=8;endSize=8;edgeStyle=none;curved=1;entryX=0.5;entryY=1;entryDx=0;entryDy=0;entryPerimeter=0;" parent="WIyWlLk6GJQsqaUBKTNV-1" target="hqAJhRNGT6BCf1iGtL1m-82" edge="1">
          <mxGeometry width="50" height="50" relative="1" as="geometry">
            <mxPoint x="940" y="1000" as="sourcePoint" />
            <mxPoint x="790" y="450" as="targetPoint" />
          </mxGeometry>
        </mxCell>
        <mxCell id="hqAJhRNGT6BCf1iGtL1m-94" value="" style="endArrow=none;html=1;rounded=0;fontSize=12;startSize=8;endSize=8;edgeStyle=none;curved=1;" parent="WIyWlLk6GJQsqaUBKTNV-1" edge="1">
          <mxGeometry width="50" height="50" relative="1" as="geometry">
            <mxPoint x="40" y="1000" as="sourcePoint" />
            <mxPoint x="940" y="1000" as="targetPoint" />
          </mxGeometry>
        </mxCell>
        <mxCell id="hqAJhRNGT6BCf1iGtL1m-95" value="" style="endArrow=none;html=1;rounded=0;fontSize=12;startSize=8;endSize=8;edgeStyle=none;curved=1;" parent="WIyWlLk6GJQsqaUBKTNV-1" edge="1">
          <mxGeometry width="50" height="50" relative="1" as="geometry">
            <mxPoint x="40" y="1000" as="sourcePoint" />
            <mxPoint x="40" y="920" as="targetPoint" />
          </mxGeometry>
        </mxCell>
        <mxCell id="hqAJhRNGT6BCf1iGtL1m-96" value="El número de revistas disponibles es 5?" style="rhombus;whiteSpace=wrap;html=1;fontSize=10;verticalAlign=middle;spacingTop=10;" parent="WIyWlLk6GJQsqaUBKTNV-1" vertex="1">
          <mxGeometry x="1040" y="880" width="120" height="80" as="geometry" />
        </mxCell>
        <mxCell id="hqAJhRNGT6BCf1iGtL1m-97" value="" style="endArrow=classic;html=1;rounded=0;fontSize=12;startSize=8;endSize=8;edgeStyle=none;curved=1;entryX=0.5;entryY=0;entryDx=0;entryDy=0;exitX=0.5;exitY=1;exitDx=0;exitDy=0;" parent="WIyWlLk6GJQsqaUBKTNV-1" source="hqAJhRNGT6BCf1iGtL1m-89" target="hqAJhRNGT6BCf1iGtL1m-96" edge="1">
          <mxGeometry width="50" height="50" relative="1" as="geometry">
            <mxPoint x="890" y="680" as="sourcePoint" />
            <mxPoint x="940" y="630" as="targetPoint" />
          </mxGeometry>
        </mxCell>
        <mxCell id="hqAJhRNGT6BCf1iGtL1m-98" value="" style="endArrow=classic;html=1;rounded=0;fontSize=12;startSize=8;endSize=8;edgeStyle=none;curved=1;exitX=0.5;exitY=1;exitDx=0;exitDy=0;" parent="WIyWlLk6GJQsqaUBKTNV-1" source="hqAJhRNGT6BCf1iGtL1m-96" edge="1">
          <mxGeometry width="50" height="50" relative="1" as="geometry">
            <mxPoint x="860" y="620" as="sourcePoint" />
            <mxPoint x="1100" y="1000" as="targetPoint" />
          </mxGeometry>
        </mxCell>
        <mxCell id="hqAJhRNGT6BCf1iGtL1m-99" value="Si" style="text;html=1;align=center;verticalAlign=middle;resizable=0;points=[];autosize=1;strokeColor=none;fillColor=none;fontSize=16;" parent="WIyWlLk6GJQsqaUBKTNV-1" vertex="1">
          <mxGeometry x="1100" y="960" width="40" height="30" as="geometry" />
        </mxCell>
        <mxCell id="hqAJhRNGT6BCf1iGtL1m-100" value="No cuentas con ninguna revista para devolver" style="strokeWidth=2;html=1;shape=mxgraph.flowchart.display;whiteSpace=wrap;fontSize=11;spacingLeft=11;spacingTop=4;" parent="WIyWlLk6GJQsqaUBKTNV-1" vertex="1">
          <mxGeometry x="1040" y="1000" width="120" height="80" as="geometry" />
        </mxCell>
        <mxCell id="hqAJhRNGT6BCf1iGtL1m-102" value="" style="endArrow=none;html=1;rounded=0;fontSize=12;startSize=8;endSize=8;edgeStyle=none;curved=1;" parent="WIyWlLk6GJQsqaUBKTNV-1" edge="1">
          <mxGeometry width="50" height="50" relative="1" as="geometry">
            <mxPoint x="40" y="1040" as="sourcePoint" />
            <mxPoint x="1040" y="1040" as="targetPoint" />
          </mxGeometry>
        </mxCell>
        <mxCell id="hqAJhRNGT6BCf1iGtL1m-103" value="" style="endArrow=none;html=1;rounded=0;fontSize=12;startSize=8;endSize=8;edgeStyle=none;curved=1;" parent="WIyWlLk6GJQsqaUBKTNV-1" edge="1">
          <mxGeometry width="50" height="50" relative="1" as="geometry">
            <mxPoint x="40" y="1040" as="sourcePoint" />
            <mxPoint x="40" y="1000" as="targetPoint" />
          </mxGeometry>
        </mxCell>
        <mxCell id="hqAJhRNGT6BCf1iGtL1m-104" value="" style="endArrow=none;html=1;rounded=0;fontSize=12;startSize=8;endSize=8;edgeStyle=none;curved=1;" parent="WIyWlLk6GJQsqaUBKTNV-1" edge="1">
          <mxGeometry width="50" height="50" relative="1" as="geometry">
            <mxPoint x="1000" y="920" as="sourcePoint" />
            <mxPoint x="1040" y="920" as="targetPoint" />
          </mxGeometry>
        </mxCell>
        <mxCell id="hqAJhRNGT6BCf1iGtL1m-105" value="" style="endArrow=none;html=1;rounded=0;fontSize=12;startSize=8;endSize=8;edgeStyle=none;curved=1;" parent="WIyWlLk6GJQsqaUBKTNV-1" edge="1">
          <mxGeometry width="50" height="50" relative="1" as="geometry">
            <mxPoint x="1000" y="1040" as="sourcePoint" />
            <mxPoint x="1000" y="920" as="targetPoint" />
          </mxGeometry>
        </mxCell>
        <mxCell id="hqAJhRNGT6BCf1iGtL1m-106" value="No" style="text;html=1;align=center;verticalAlign=middle;resizable=0;points=[];autosize=1;strokeColor=none;fillColor=none;fontSize=16;" parent="WIyWlLk6GJQsqaUBKTNV-1" vertex="1">
          <mxGeometry x="1010" y="890" width="40" height="30" as="geometry" />
        </mxCell>
        <mxCell id="hqAJhRNGT6BCf1iGtL1m-107" value="" style="endArrow=classic;html=1;rounded=0;fontSize=12;startSize=8;endSize=8;edgeStyle=none;curved=1;entryX=0;entryY=0.5;entryDx=0;entryDy=0;" parent="WIyWlLk6GJQsqaUBKTNV-1" source="hqAJhRNGT6BCf1iGtL1m-73" target="hqAJhRNGT6BCf1iGtL1m-108" edge="1">
          <mxGeometry width="50" height="50" relative="1" as="geometry">
            <mxPoint x="1000" y="198" as="sourcePoint" />
            <mxPoint x="1200" y="198" as="targetPoint" />
          </mxGeometry>
        </mxCell>
        <mxCell id="hqAJhRNGT6BCf1iGtL1m-108" value="Presiona 4?" style="rhombus;whiteSpace=wrap;html=1;fontSize=16;" parent="WIyWlLk6GJQsqaUBKTNV-1" vertex="1">
          <mxGeometry x="1200" y="160" width="120" height="80" as="geometry" />
        </mxCell>
        <mxCell id="hqAJhRNGT6BCf1iGtL1m-109" value="Si" style="text;html=1;align=center;verticalAlign=middle;resizable=0;points=[];autosize=1;strokeColor=none;fillColor=none;fontSize=16;" parent="WIyWlLk6GJQsqaUBKTNV-1" vertex="1">
          <mxGeometry x="940" y="240" width="40" height="30" as="geometry" />
        </mxCell>
        <mxCell id="hqAJhRNGT6BCf1iGtL1m-110" value="No" style="text;html=1;align=center;verticalAlign=middle;resizable=0;points=[];autosize=1;strokeColor=none;fillColor=none;fontSize=16;" parent="WIyWlLk6GJQsqaUBKTNV-1" vertex="1">
          <mxGeometry x="1000" y="168" width="40" height="30" as="geometry" />
        </mxCell>
        <mxCell id="hqAJhRNGT6BCf1iGtL1m-111" value="Código de la revista a retirar" style="html=1;strokeWidth=2;shape=manualInput;whiteSpace=wrap;rounded=1;size=26;arcSize=11;fontSize=16;spacingTop=20;" parent="WIyWlLk6GJQsqaUBKTNV-1" vertex="1">
          <mxGeometry x="1360" y="280" width="120" height="80" as="geometry" />
        </mxCell>
        <mxCell id="hqAJhRNGT6BCf1iGtL1m-112" value="Título de la revista a retirar" style="html=1;strokeWidth=2;shape=manualInput;whiteSpace=wrap;rounded=1;size=26;arcSize=11;fontSize=16;spacingTop=20;" parent="WIyWlLk6GJQsqaUBKTNV-1" vertex="1">
          <mxGeometry x="1360" y="400" width="120" height="80" as="geometry" />
        </mxCell>
        <mxCell id="hqAJhRNGT6BCf1iGtL1m-113" value="" style="endArrow=classic;html=1;rounded=0;fontSize=12;startSize=8;endSize=8;edgeStyle=none;curved=1;exitX=0.5;exitY=1;exitDx=0;exitDy=0;entryX=0.5;entryY=0;entryDx=0;entryDy=0;" parent="WIyWlLk6GJQsqaUBKTNV-1" source="hqAJhRNGT6BCf1iGtL1m-111" target="hqAJhRNGT6BCf1iGtL1m-112" edge="1">
          <mxGeometry width="50" height="50" relative="1" as="geometry">
            <mxPoint x="1340" y="470" as="sourcePoint" />
            <mxPoint x="1390" y="540" as="targetPoint" />
          </mxGeometry>
        </mxCell>
        <mxCell id="hqAJhRNGT6BCf1iGtL1m-114" value="Año de la revista a retirar" style="html=1;strokeWidth=2;shape=manualInput;whiteSpace=wrap;rounded=1;size=26;arcSize=11;fontSize=16;spacingTop=20;" parent="WIyWlLk6GJQsqaUBKTNV-1" vertex="1">
          <mxGeometry x="1360" y="520" width="120" height="80" as="geometry" />
        </mxCell>
        <mxCell id="hqAJhRNGT6BCf1iGtL1m-115" value="" style="endArrow=classic;html=1;rounded=0;fontSize=12;startSize=8;endSize=8;edgeStyle=none;curved=1;entryX=0.5;entryY=0;entryDx=0;entryDy=0;" parent="WIyWlLk6GJQsqaUBKTNV-1" target="hqAJhRNGT6BCf1iGtL1m-114" edge="1">
          <mxGeometry width="50" height="50" relative="1" as="geometry">
            <mxPoint x="1420" y="480" as="sourcePoint" />
            <mxPoint x="1470" y="360" as="targetPoint" />
          </mxGeometry>
        </mxCell>
        <mxCell id="hqAJhRNGT6BCf1iGtL1m-116" value="Comprobación Devolución&lt;br&gt;revista +1" style="rounded=0;whiteSpace=wrap;html=1;fontSize=16;" parent="WIyWlLk6GJQsqaUBKTNV-1" vertex="1">
          <mxGeometry x="1360" y="640" width="120" height="80" as="geometry" />
        </mxCell>
        <mxCell id="hqAJhRNGT6BCf1iGtL1m-117" value="Revista Disponible -1" style="rounded=0;whiteSpace=wrap;html=1;fontSize=16;" parent="WIyWlLk6GJQsqaUBKTNV-1" vertex="1">
          <mxGeometry x="1360" y="760" width="120" height="80" as="geometry" />
        </mxCell>
        <mxCell id="hqAJhRNGT6BCf1iGtL1m-118" value="" style="endArrow=classic;html=1;rounded=0;fontSize=12;startSize=8;endSize=8;edgeStyle=none;curved=1;entryX=0.5;entryY=0;entryDx=0;entryDy=0;" parent="WIyWlLk6GJQsqaUBKTNV-1" edge="1">
          <mxGeometry width="50" height="50" relative="1" as="geometry">
            <mxPoint x="1419.41" y="600" as="sourcePoint" />
            <mxPoint x="1419.41" y="640" as="targetPoint" />
          </mxGeometry>
        </mxCell>
        <mxCell id="hqAJhRNGT6BCf1iGtL1m-119" value="" style="endArrow=classic;html=1;rounded=0;fontSize=12;startSize=8;endSize=8;edgeStyle=none;curved=1;entryX=0.5;entryY=0;entryDx=0;entryDy=0;exitX=0.5;exitY=1;exitDx=0;exitDy=0;" parent="WIyWlLk6GJQsqaUBKTNV-1" source="hqAJhRNGT6BCf1iGtL1m-116" target="hqAJhRNGT6BCf1iGtL1m-117" edge="1">
          <mxGeometry width="50" height="50" relative="1" as="geometry">
            <mxPoint x="1414" y="720" as="sourcePoint" />
            <mxPoint x="1384" y="770" as="targetPoint" />
          </mxGeometry>
        </mxCell>
        <mxCell id="hqAJhRNGT6BCf1iGtL1m-120" value="" style="endArrow=classic;html=1;rounded=0;fontSize=12;startSize=8;endSize=8;edgeStyle=none;curved=1;" parent="WIyWlLk6GJQsqaUBKTNV-1" edge="1">
          <mxGeometry width="50" height="50" relative="1" as="geometry">
            <mxPoint x="1260" y="240" as="sourcePoint" />
            <mxPoint x="1260" y="280" as="targetPoint" />
          </mxGeometry>
        </mxCell>
        <mxCell id="1gxvOUdmvpl6UypNln4B-0" value="Si" style="text;html=1;align=center;verticalAlign=middle;resizable=0;points=[];autosize=1;strokeColor=none;fillColor=none;fontSize=16;" vertex="1" parent="WIyWlLk6GJQsqaUBKTNV-1">
          <mxGeometry x="1260" y="240" width="40" height="30" as="geometry" />
        </mxCell>
        <mxCell id="1gxvOUdmvpl6UypNln4B-1" value="Hay revistas disponibles?" style="rhombus;whiteSpace=wrap;html=1;fontSize=14;spacingTop=3;" vertex="1" parent="WIyWlLk6GJQsqaUBKTNV-1">
          <mxGeometry x="1200" y="280" width="120" height="80" as="geometry" />
        </mxCell>
        <mxCell id="1gxvOUdmvpl6UypNln4B-2" value="" style="endArrow=classic;html=1;rounded=0;fontSize=12;startSize=8;endSize=8;edgeStyle=none;curved=1;entryX=0;entryY=0.5;entryDx=0;entryDy=0;" edge="1" parent="WIyWlLk6GJQsqaUBKTNV-1" target="hqAJhRNGT6BCf1iGtL1m-111">
          <mxGeometry width="50" height="50" relative="1" as="geometry">
            <mxPoint x="1320" y="320" as="sourcePoint" />
            <mxPoint x="1370" y="270" as="targetPoint" />
          </mxGeometry>
        </mxCell>
        <mxCell id="1gxvOUdmvpl6UypNln4B-3" value="No hay revistas que poder retirar" style="strokeWidth=2;html=1;shape=mxgraph.flowchart.display;whiteSpace=wrap;fontSize=12;spacingTop=9;spacingLeft=4;" vertex="1" parent="WIyWlLk6GJQsqaUBKTNV-1">
          <mxGeometry x="1200" y="400" width="120" height="80" as="geometry" />
        </mxCell>
        <mxCell id="1gxvOUdmvpl6UypNln4B-4" value="" style="endArrow=classic;html=1;rounded=0;fontSize=12;startSize=8;endSize=8;edgeStyle=none;curved=1;entryX=0.5;entryY=0;entryDx=0;entryDy=0;entryPerimeter=0;" edge="1" parent="WIyWlLk6GJQsqaUBKTNV-1" target="1gxvOUdmvpl6UypNln4B-3">
          <mxGeometry width="50" height="50" relative="1" as="geometry">
            <mxPoint x="1260" y="360" as="sourcePoint" />
            <mxPoint x="1310" y="310" as="targetPoint" />
          </mxGeometry>
        </mxCell>
        <mxCell id="1gxvOUdmvpl6UypNln4B-5" value="" style="endArrow=none;html=1;rounded=0;fontSize=12;startSize=8;endSize=8;edgeStyle=none;curved=1;" edge="1" parent="WIyWlLk6GJQsqaUBKTNV-1">
          <mxGeometry width="50" height="50" relative="1" as="geometry">
            <mxPoint x="1260" y="1120" as="sourcePoint" />
            <mxPoint x="1260" y="480" as="targetPoint" />
          </mxGeometry>
        </mxCell>
        <mxCell id="1gxvOUdmvpl6UypNln4B-6" value="" style="endArrow=none;html=1;rounded=0;fontSize=12;startSize=8;endSize=8;edgeStyle=none;curved=1;" edge="1" parent="WIyWlLk6GJQsqaUBKTNV-1">
          <mxGeometry width="50" height="50" relative="1" as="geometry">
            <mxPoint x="40" y="1120" as="sourcePoint" />
            <mxPoint x="1260" y="1120" as="targetPoint" />
          </mxGeometry>
        </mxCell>
        <mxCell id="1gxvOUdmvpl6UypNln4B-7" value="" style="endArrow=none;html=1;rounded=0;fontSize=12;startSize=8;endSize=8;edgeStyle=none;curved=1;" edge="1" parent="WIyWlLk6GJQsqaUBKTNV-1">
          <mxGeometry width="50" height="50" relative="1" as="geometry">
            <mxPoint x="40" y="1120" as="sourcePoint" />
            <mxPoint x="40" y="1040" as="targetPoint" />
          </mxGeometry>
        </mxCell>
        <mxCell id="1gxvOUdmvpl6UypNln4B-8" value="" style="endArrow=none;html=1;rounded=0;fontSize=12;startSize=8;endSize=8;edgeStyle=none;curved=1;" edge="1" parent="WIyWlLk6GJQsqaUBKTNV-1">
          <mxGeometry width="50" height="50" relative="1" as="geometry">
            <mxPoint x="1420" y="1160" as="sourcePoint" />
            <mxPoint x="1420" y="840" as="targetPoint" />
          </mxGeometry>
        </mxCell>
        <mxCell id="1gxvOUdmvpl6UypNln4B-9" value="" style="endArrow=none;html=1;rounded=0;fontSize=12;startSize=8;endSize=8;edgeStyle=none;curved=1;" edge="1" parent="WIyWlLk6GJQsqaUBKTNV-1">
          <mxGeometry width="50" height="50" relative="1" as="geometry">
            <mxPoint x="40" y="1160" as="sourcePoint" />
            <mxPoint x="1420" y="1160" as="targetPoint" />
          </mxGeometry>
        </mxCell>
        <mxCell id="1gxvOUdmvpl6UypNln4B-10" value="" style="endArrow=none;html=1;rounded=0;fontSize=12;startSize=8;endSize=8;edgeStyle=none;curved=1;" edge="1" parent="WIyWlLk6GJQsqaUBKTNV-1">
          <mxGeometry width="50" height="50" relative="1" as="geometry">
            <mxPoint x="40" y="1160" as="sourcePoint" />
            <mxPoint x="40" y="1120" as="targetPoint" />
          </mxGeometry>
        </mxCell>
      </root>
    </mxGraphModel>
  </diagram>
</mxfile>
